<?xml version="1.0" standalone="no"?>
<!DOCTYPE svg PUBLIC "-//W3C//DTD SVG 20010904//EN"
 "http://www.w3.org/TR/2001/REC-SVG-20010904/DTD/svg10.dtd">
<svg version="1.0" xmlns="http://www.w3.org/2000/svg"
 width="700.000000pt" height="700.000000pt" viewBox="0 0 700.000000 700.000000"
 preserveAspectRatio="xMidYMid meet">
<metadata>
Created by potrace 1.14, written by Peter Selinger 2001-2017
</metadata>
<g transform="translate(0.000000,700.000000) scale(0.100000,-0.100000)"
fill="#000000" stroke="none">
<path d="M544 5539 c-39 -4 -80 -10 -92 -13 -11 -4 -30 -9 -41 -11 -29 -5 -88
-34 -146 -70 -130 -82 -228 -232 -255 -389 -7 -41 -10 -555 -8 -1596 l3 -1535
22 -59 c71 -188 200 -321 364 -375 35 -11 48 -14 114 -27 17 -3 1369 -6 3005
-6 l2975 0 83 22 c92 25 178 73 249 140 59 55 84 90 124 170 61 124 59 48 56
1740 l-2 1545 -27 71 c-86 234 -287 384 -528 393 -145 6 -5830 6 -5896 0z
m5871 -2040 l1 -1456 -2916 1 -2915 1 -1 1450 c0 798 1 1453 3 1456 1 4 1314
6 2915 5 l2913 -1 0 -1456z"/>
<path d="M877 4656 c-2 -6 -3 -137 -3 -291 l1 -280 438 -1 437 0 0 291 0 292
-435 0 c-304 0 -435 -3 -438 -11z"/>
<path d="M2044 4376 l1 -291 290 0 290 0 0 288 c0 158 -2 288 -5 289 -3 1
-134 2 -291 3 l-287 2 2 -291z"/>
<path d="M2918 4656 c-2 -6 -3 -137 -3 -291 l1 -280 290 0 289 0 3 291 2 291
-289 0 c-200 0 -291 -4 -293 -11z"/>
<path d="M3792 4376 l3 -291 288 -1 c158 0 288 2 288 5 3 15 5 557 2 567 -3 7
-94 11 -294 11 l-289 0 2 -291z"/>
<path d="M4668 4656 c-3 -9 -2 -531 1 -562 1 -8 88 -11 291 -10 l290 0 0 291
0 292 -290 0 c-201 0 -290 -3 -292 -11z"/>
<path d="M5543 4376 l2 -291 290 0 290 0 0 288 c1 281 0 288 -20 292 -11 2
-142 3 -292 3 l-271 -1 1 -291z"/>
<path d="M875 3500 l0 -290 50 0 c117 -1 386 -1 457 0 l76 0 1 290 0 290 -292
0 -292 0 0 -290z"/>
<path d="M1750 3500 c0 -269 1 -290 18 -290 154 -3 556 1 560 5 3 3 6 133 6
290 l1 285 -292 0 -293 0 0 -290z"/>
<path d="M2625 3500 l0 -290 292 0 293 0 0 290 0 290 -293 0 -292 0 0 -290z"/>
<path d="M3500 3500 l0 -289 286 -3 c246 -3 287 -1 293 12 3 8 6 139 6 290 l0
275 -293 3 -292 2 0 -290z"/>
<path d="M4375 3500 l-1 -290 63 0 c35 -1 119 -1 188 -1 69 0 172 0 229 1
l105 0 -1 290 0 290 -292 0 -291 0 0 -290z"/>
<path d="M5250 3500 l0 -290 105 0 c58 0 215 -1 350 -1 135 0 284 1 333 1 l87
0 0 290 0 290 -437 0 -438 0 0 -290z"/>
<path d="M879 2916 c-3 -2 -5 -562 -2 -572 2 -6 56 -10 147 -11 l143 -1 0 292
0 292 -144 1 c-79 0 -144 -1 -144 -1z"/>
<path d="M1459 2831 c0 -96 0 -470 1 -487 0 -7 45 -11 143 -10 l142 1 0 290 0
290 -142 1 -143 0 -1 -85z"/>
<path d="M2043 2626 l2 -291 1455 0 1455 0 2 270 c2 149 1 279 -2 291 l-4 20
-1455 0 -1455 0 2 -290z"/>
<path d="M5255 2912 c-3 -3 -5 -134 -5 -292 l0 -287 145 0 c141 0 145 0 146
21 3 96 -2 549 -5 555 -6 9 -272 11 -281 3z"/>
<path d="M5835 2906 c-2 -6 -3 -137 -2 -291 l2 -280 145 0 145 0 0 290 0 290
-143 1 c-95 0 -145 -3 -147 -10z"/>
</g>
</svg>
